<svg id="Layer_3" data-name="Layer 3" xmlns="http://www.w3.org/2000/svg" viewBox="0 0 622.6 117.2"><defs><style>.cls-1{fill:#fff;}.cls-2{fill:#ff6000;}.cls-3{fill:#e04840;}.cls-4{fill:#c13080;}.cls-5{fill:#a118bf;}.cls-6{fill:#a046ff;}</style></defs><path class="cls-1" d="M125.8,79.9c-14-.9-17-1.7-17-5.6s3-5,15.3-5,18.3,1.4,18.3,7h10.3c0-11.1-10.4-15.4-27.4-15.4S98.5,63.8,98.5,73.8s7.8,13,27.3,14c15.6.8,18.5,1.5,18.5,5.7s-4.2,5.6-17,5.6c-15.7,0-20-2.4-20-7.8H96.9c0,9.8,6.5,14,17.8,15.5a108,108,0,0,0,12,.6,106.1,106.1,0,0,0,11.9-.6c9.7-1.3,16-4.9,16-13.7C154.6,81.8,143.6,80.9,125.8,79.9Z"/><path class="cls-1" d="M336.2,28.8c-14-.9-17-1.7-17-5.6s3-5.1,15.3-5.1,18.3,1.5,18.3,7.1h10.3c0-11.1-10.4-15.4-27.4-15.4s-26.8,2.9-26.8,12.9,7.8,13,27.3,14c15.6.8,18.5,1.5,18.5,5.7S350.5,48,337.8,48c-15.8,0-20.1-2.4-20.1-7.8H307.4c0,9.8,6.5,14,17.7,15.4a88.2,88.2,0,0,0,12,.7,85.7,85.7,0,0,0,11.9-.7c9.8-1.2,16-4.8,16-13.6C365,30.7,354,29.8,336.2,28.8Z"/><polygon class="cls-1" points="189.3 10.5 169.1 46.7 153.9 10.5 143.6 10.5 128.4 46.7 108.2 10.5 96.9 10.5 121.4 55.6 135.2 55.6 148.7 23.3 162.3 55.6 176.1 55.6 200.5 10.5 189.3 10.5"/><polygon class="cls-1" points="506.5 10.5 486.3 46.7 471.1 10.5 460.8 10.5 445.6 46.7 425.4 10.5 414.2 10.5 438.6 55.6 452.4 55.6 466 23.3 479.5 55.6 493.3 55.6 517.8 10.5 506.5 10.5"/><path class="cls-1" d="M198.2,55.6l5.3-10h28.9l5.3,10h11.4L224.6,10.5H211.3L186.8,55.6ZM218,18.5l10.2,19.3H207.7Z"/><path class="cls-1" d="M262.5,43.2h20.9L291,55.6h12.1L294.7,42C301,39.8,305,34.4,305,26.9c0-10.1-7.1-16.4-17.3-16.4H252.2V55.6h10.3Zm0-24.1h21.9c4,0,10.2,0,10.2,7.8s-6.2,7.6-10.2,7.6H262.5Z"/><path class="cls-1" d="M382.9,45.6h28.9l5.3,10h11.4L404,10.5H390.6L366.1,55.6h11.4Zm14.4-27.1,10.3,19.3H387Z"/><polygon class="cls-1" points="156.5 70.2 179 70.2 179 106.8 189.4 106.8 189.4 70.2 212 70.2 212 61.6 156.5 61.6 156.5 70.2"/><path class="cls-1" d="M269.8,78c0-10.1-7-16.4-17.3-16.4H217.1v45.2h10.3V94.3h20.9l7.5,12.5H268l-8.4-13.7C265.9,90.9,269.8,85.5,269.8,78Zm-20.5,7.6H227.4V70.2h21.9c4,0,10.2,0,10.2,7.8S253.3,85.6,249.3,85.6Z"/><polygon class="cls-1" points="275.4 106.8 323.1 106.8 323.1 98.4 285.7 98.4 285.7 88 323.1 88 323.1 80.3 285.7 80.3 285.7 69.9 323.1 69.9 323.1 61.6 275.4 61.6 275.4 106.8"/><path class="cls-1" d="M351.3,61.6l-24.5,45.2h11.4l5.3-10.1h29l5.2,10.1h11.5L364.6,61.6Zm-3.6,27.3L358,69.6l10.3,19.3Z"/><polygon class="cls-1" points="428.1 94.9 407.9 61.6 393.5 61.6 393.5 106.8 403.8 106.8 403.8 73.6 424.2 106.8 432 106.8 452.3 73.5 452.3 106.8 462.7 106.8 462.7 61.6 448.2 61.6 428.1 94.9"/><rect class="cls-1" x="469.1" y="61.6" width="10.3" height="45.17"/><polygon class="cls-1" points="533.8 96.9 500.1 61.6 485.9 61.6 485.9 106.8 496.2 106.8 496.2 71.5 529.8 106.8 544.1 106.8 544.1 61.6 533.8 61.6 533.8 96.9"/><rect class="cls-2" x="73" y="10.5" width="10.3" height="96.28"/><rect class="cls-3" x="55.7" y="10.5" width="8.1" height="96.28"/><rect class="cls-4" x="40.7" y="10.5" width="5.8" height="96.28"/><rect class="cls-5" x="27.8" y="10.5" width="3.5" height="96.28"/><rect class="cls-6" x="17.3" y="10.5" width="1.3" height="96.28"/><path class="cls-1" d="M576.8,89.8h18.1c-.2,3.5-4.9,9.5-17.3,9.5-16.4,0-18.6-9.5-18.6-14.9s2.2-14.8,18.6-14.8c13.5,0,16.6,5.8,17.3,9.5h10.4c-.7-10.9-9.7-18.2-27.7-18.2s-28.9,8.5-28.9,23.3c0,12.4,7.3,20.4,19.6,22.6a42.3,42.3,0,0,0,7.3.6,39.2,39.2,0,0,0,7.1-.6c6.1-1.2,10.7-3.8,13.9-7.3l.4,7.3h8.3V82.6H576.8Z"/></svg>