<svg id="Layer_1" data-name="Layer 1" xmlns="http://www.w3.org/2000/svg" viewBox="0 0 1561.59 437.01"><defs><style>.cls-1{fill:#9a47bf;}.cls-2{fill:#ff4800;}.cls-3{fill:#5a34bf;}</style></defs><path class="cls-1" d="M91.7,142.68,57.13,81.12v61.56H10.6V2.13H66.12L111.55,80,157,2.13h55.7V142.68H166.21v-62l-36.09,62Z"/><path class="cls-1" d="M414.25,142.68h-54l-10.57-23.52H280.23l-10.57,23.52H215.93L278.84,2.62h72.49ZM333,78.56l-18.1-36.68-18.1,36.68Z"/><path class="cls-1" d="M508.39,73,585,142.68H521.77l-43.21-42.05L463.5,114.57v28.11H417V2.13H463.5V57.91L521.77,2.13H585Z"/><path class="cls-1" d="M739.84,2.23v39H631.38V53.63H733V91.06H631.38V103.7H739.84v39h-155V2.23Z"/><path class="cls-1" d="M1021.77,2.13l-68,99.27v41.28H907.23V101.4L839.56,2.13h55l36,48.57L966.77,2.13Z"/><path class="cls-1" d="M1190.94,71.64c0,54.62-31,71.64-96.2,71.64-66.89,0-94.51-24-94.51-74.26,0-47,30.25-69,93.23-69C1154.34,0,1190.94,15.81,1190.94,71.64Zm-51.28,0c0-23.33-18.7-34.82-45.06-34.82-29.27,0-43.09,13-43.09,34.82,0,20.3,13.77,34.82,43.68,34.82C1122.44,106.46,1139.66,95.75,1139.66,71.64Z"/><path class="cls-1" d="M1207.68,115.05c-8.18-15.75-9.81-35.71-9.77-79.14V2.13h49.24V65c0,17.18,3.89,39.12,41.95,39.12S1329.94,82.2,1329.94,65V2.13h49.24V35.91c0,43.43-1.6,63.39-9.78,79.14-11.35,21.85-42.48,27.63-80.3,27.63S1219,136.9,1207.68,115.05Z"/><path class="cls-1" d="M1489.29,2.13c13.28,0,60.52,1.79,60.52,51.63,0,26-12.13,40-25.77,47.45l28.7,41.47-53.87-.25-23.85-33h-42.3v33.25h-46.53V2.13Zm13,53.18c0-11.71-12-12.13-18.14-12.13h-51.45v25.2h52.2C1491.65,68.38,1502.31,67,1502.31,55.31Z"/><path class="cls-2" d="M304.89,200.29H255.24c0-7.39-2.85-11.52-39.63-11.52-35.59,0-38.55,1.71-38.55,6.9.34,3.7,2.84,3.88,38.13,6.76,77.94,6.36,94.61,7.44,94.61,43.55s-13.52,43.57-94,43.57c-74.13,0-85.48-7.33-85.48-48.24h48.21c0,8.37,3.51,10.27,39.37,10.27,33.7,0,37.44.34,37.44-6.08,0-4.51-4.15-3.65-40.91-6.67-57-4.69-86.06-7.5-86.06-43.62,0-41.54,24.16-45.78,86.06-45.78C287.88,149.43,304.89,159.67,304.89,200.29Z"/><path class="cls-2" d="M495.71,149v46.53H426.24v94H379.71v-94H310.23V149Z"/><path class="cls-2" d="M607,149c13.27,0,60.51,1.8,60.51,51.63,0,26-12.13,40-25.77,47.45l28.7,41.47-53.86-.25-23.85-33H550.44v33.26H503.92V149Zm13,53.18c0-11.71-12-12.13-18.14-12.13H550.44v25.2h52.21C609.37,215.24,620,213.88,620,202.17Z"/><path class="cls-2" d="M829.58,149.09v39H721.12v12.43H822.7v37.43H721.12v12.65H829.58v39h-155V149.09Z"/><path class="cls-2" d="M1037.22,289.55h-54L972.63,266H903.2l-10.57,23.53H838.9l62.91-140.07H974.3ZM956,225.42,937.9,188.75l-18.1,36.67Z"/><path class="cls-2" d="M1125.44,289.55,1090.87,228v61.56h-46.52V149h55.51l45.43,77.89L1190.78,149h55.7V289.54H1200v-62l-36.09,62Z"/><path class="cls-2" d="M1430,200.29h-49.65c0-7.39-2.86-11.52-39.63-11.52-35.59,0-38.55,1.71-38.55,6.9.33,3.7,2.84,3.88,38.13,6.76,77.94,6.36,94.61,7.44,94.61,43.55s-13.53,43.57-94,43.57c-74.12,0-85.47-7.33-85.47-48.24h48.21c0,8.37,3.51,10.27,39.37,10.27,33.7,0,37.44.34,37.44-6.08,0-4.51-4.15-3.65-40.91-6.67-57-4.69-86.07-7.5-86.07-43.62,0-41.54,24.17-45.78,86.07-45.78C1413,149.43,1430,159.67,1430,200.29Z"/><path class="cls-3" d="M190.92,357.93H143.09s-3.32-23.18-49-23.18c-39.33,0-45.93,15.52-45.93,31.11,0,17.51,9.81,31.61,45.93,31.61,48.6,0,49-19.54,49-19.54h47.82c0,32.18-19.14,59.08-95.22,59.08C23.11,437,0,414.8,0,367.47c0-53.79,33.18-72.75,94.47-72.75C166.9,294.72,190.91,320.12,190.92,357.93Z"/><path class="cls-3" d="M384.2,365.37c0,54.62-31,71.64-96.2,71.64-66.9,0-94.52-24-94.52-74.26,0-47,30.26-69,93.23-69C347.6,293.73,384.2,309.54,384.2,365.37Zm-51.29,0c0-23.33-18.69-34.83-45.06-34.83-29.27,0-43.08,13-43.08,34.83,0,20.3,13.77,34.82,43.68,34.82C315.7,400.19,332.91,389.47,332.91,365.37Z"/><path class="cls-3" d="M470.06,436.41l-34.57-61.56V436.4H389V295.86h55.51l45.43,77.88,45.49-77.88h55.7V436.4H544.57v-62l-36.09,62Z"/><path class="cls-3" d="M754.65,296v39H646.18v12.42H747.77v37.43H646.18v12.65H754.65v39h-155V296Z"/><path class="cls-3" d="M1039.84,295.86v46.52H970.37v94H923.84v-94H854.36V295.86Z"/><path class="cls-3" d="M1151.15,295.86c13.27,0,60.51,1.79,60.51,51.62,0,26-12.13,40-25.77,47.45l28.7,41.47-53.86-.24-23.85-33h-42.31v33.26H1048V295.86Zm13,53.17c0-11.7-12-12.13-18.14-12.13h-51.46v25.21h52.2C1153.5,362.11,1164.17,360.74,1164.17,349Z"/><path class="cls-3" d="M1226.49,408.77c-8.18-15.74-9.81-35.7-9.77-79.14V295.86H1266v62.89c0,17.18,3.88,39.11,42,39.11s40.83-21.93,40.83-39.11V295.86H1398v33.77c0,43.44-1.6,63.4-9.78,79.14-11.35,21.86-42.48,27.64-80.3,27.64S1237.85,430.63,1226.49,408.77Z"/><path class="cls-3" d="M1561.59,296v39H1453.13v12.42h101.58v37.43H1453.13v12.65h108.46v39h-155V296Z"/></svg>